<svg width="34" height="33" viewBox="0 0 34 33" fill="none" xmlns="http://www.w3.org/2000/svg">
  <g clip-path="url(#clip0_161_81)">
    <path d="M17 0.682983L7.41824 1.7349L0 12.0747L17 32.6297L34 12.0747L26.5819 1.7349L17 0.682983Z" fill="#FD7900" />
    <path d="M0 12.0748L17 32.6297L6.8858 12.0748H0ZM27.1141 12.0748L17 32.6297L33.9999 12.0748H27.1141Z"
      fill="#EB8D00" />
    <path d="M6.88574 12.0748L16.9999 32.6297L27.1141 12.0748H6.88574Z" fill="#FDC500" />
    <path
      d="M7.41819 1.7349L6.88574 12.0747L16.9999 0.682983L7.41819 1.7349ZM27.114 12.0748L26.5817 1.7349L16.9999 0.683121L27.114 12.0748Z"
      fill="white" />
    <path d="M27.1142 12.075H33.9999L26.5818 1.73511L27.1142 12.075ZM0 12.075H6.8858L7.41824 1.73511L0 12.075Z"
      fill="#FDC500" />
    <path d="M16.9999 0.682983L6.88574 12.0747H27.1141L16.9999 0.682983Z" fill="#FEEEB7" />
  </g>
  <defs>
    <clipPath id="clip0_161_81">
      <rect width="34" height="31.9933" fill="white" transform="translate(0 0.682983)" />
    </clipPath>
  </defs>
</svg>
