<svg width="38" height="38" viewBox="0 0 38 38" fill="none" xmlns="http://www.w3.org/2000/svg">
  <path
    d="M2.43503 35.3623L14.5012 23.3305M29.6182 17.5548L25.9493 28.0469C25.8907 28.215 25.7916 28.3693 25.6602 28.4965C25.5289 28.6237 25.3693 28.7202 25.1949 28.7776L3.17614 36.0133C2.97777 36.0785 2.76751 36.0909 2.56825 36.0492C2.36898 36.0075 2.18834 35.9134 2.04598 35.7769C1.90363 35.6405 1.80502 35.4671 1.76087 35.2756C1.71673 35.084 1.72875 34.8816 1.79563 34.6905L9.09879 13.8091C9.15113 13.6591 9.23583 13.5201 9.34712 13.4014C9.45841 13.2827 9.5937 13.1871 9.74381 13.1211L19.9102 8.66768C20.1168 8.57689 20.3436 8.54568 20.5619 8.57799C20.7801 8.61029 20.9801 8.70467 21.1365 8.84921L29.3547 16.4544C29.5021 16.5906 29.6048 16.7657 29.6514 16.9601C29.6979 17.1545 29.6865 17.3604 29.6182 17.5548V17.5548Z"
    stroke="#F9FFF9" stroke-width="3" stroke-linecap="round" stroke-linejoin="round" />
  <path
    d="M29.8455 16.9083L35.2074 11.5599C35.9183 10.8508 36.3221 9.91371 36.3301 8.9546C36.338 7.99548 35.9494 7.09291 35.2498 6.44538L31.2937 2.78163C30.9471 2.46084 30.5346 2.21237 30.0795 2.05042C29.6245 1.88847 29.1359 1.81621 28.6418 1.83776C28.1476 1.85932 27.6575 1.97427 27.1995 2.17606C26.7414 2.37784 26.3244 2.6625 25.9723 3.01377L20.6103 8.36217M18.5227 19.3186C18.2627 19.0782 17.9532 18.892 17.612 18.7706C17.2707 18.6493 16.9043 18.5952 16.5338 18.6115C16.1632 18.6277 15.7957 18.714 15.4523 18.8653C15.1088 19.0167 14.7961 19.2302 14.5321 19.4936C14.268 19.757 14.0578 20.0652 13.9133 20.4006C13.7689 20.736 13.693 21.0919 13.6902 21.4482C13.6873 21.8045 13.7575 22.1541 13.8966 22.477C14.0358 22.8 14.2413 23.0899 14.5013 23.3304C15.0264 23.8159 15.7418 24.0703 16.4902 24.0375C17.2386 24.0047 17.9586 23.6874 18.4919 23.1554C19.0252 22.6234 19.328 21.9203 19.3338 21.2008C19.3396 20.4812 19.0478 19.8042 18.5227 19.3186Z"
    stroke="#F9FFF9" stroke-width="3" stroke-linecap="round" stroke-linejoin="round" />
</svg>
