<svg width="31" height="29" viewBox="0 0 31 29" fill="none" xmlns="http://www.w3.org/2000/svg">
  <path
    d="M25.6738 11.1122C25.6816 9.76486 25.7306 8.7188 25.8209 7.97399C25.9399 7.22935 26.2592 6.54323 26.7788 5.91564C27.3273 5.25954 28.1901 4.77732 29.3672 4.46896L30.2568 6.79627C29.6535 7.02203 29.2356 7.40656 29.0031 7.94986C28.7708 8.46449 28.6524 9.1088 28.6479 9.88279L28.6421 18.3539C28.627 20.9625 27.8266 23.0505 26.2409 24.6178C24.6838 26.1852 22.771 27.2919 20.5026 27.9378C18.2628 28.5839 15.9963 28.9001 13.703 28.8865C11.3237 28.8724 9.1475 28.4438 7.17433 27.6008C5.20117 26.7577 3.63172 25.5014 2.46601 23.8318C1.32896 22.1623 0.767298 20.138 0.78103 17.7587L0.820489 10.9218C0.838026 7.88318 1.68266 5.58048 3.3544 4.0137C5.05497 2.41842 6.99589 1.39791 9.17717 0.952173C10.5836 0.645175 12.0035 0.495926 13.4368 0.504425C16.1888 0.520744 18.464 1.17925 20.2625 2.47994C22.0899 3.75213 22.9955 5.79287 22.9792 8.60215L24.5662 9.29958L24.5499 12.1375L22.9629 11.4401L22.9028 21.8459C19.2274 22.8848 16.2001 23.3972 13.8208 23.3831C9.11954 23.3552 6.63799 21.1905 6.37614 16.8888L6.40121 12.5459C6.41114 10.8259 6.73424 9.48051 7.37052 8.50959C8.0068 7.53868 8.95692 6.82764 10.2209 6.37646C11.2262 6.03841 12.2448 5.87245 13.2768 5.87857C15.3121 5.89064 17.4877 6.43388 19.8035 7.5083C19.6399 6.04531 19.0011 4.98083 17.8869 4.31488C16.7727 3.64893 15.4273 3.31128 13.8507 3.30193C10.9554 3.28476 8.55822 3.88689 6.65914 5.10832C4.76006 6.32974 3.80249 8.33077 3.78644 11.1114L3.74971 17.4753C3.73267 20.4279 4.70925 22.5837 6.67944 23.9428C8.67846 25.2733 11.1399 25.9473 14.0639 25.9646C16.0992 25.9767 17.9926 25.7299 19.7443 25.2243C21.496 24.69 22.9054 23.8813 23.9723 22.7983C25.0679 21.7154 25.6203 20.3857 25.6294 18.809L25.6738 11.1122ZM19.8726 10.4328C18.958 9.96866 17.9425 9.57564 16.8264 9.25368C15.7389 8.93189 14.7078 8.76811 13.7332 8.76233C12.4432 8.75468 11.3951 9.0638 10.5888 9.6897C9.81114 10.3158 9.41819 11.3455 9.40991 12.7788L9.38882 16.4337C9.38138 17.7237 9.77683 18.7437 10.5752 19.4938C11.4022 20.244 12.6327 20.624 14.2667 20.6337C15.8146 20.6429 17.6657 20.2955 19.8198 19.5916L19.8726 10.4328Z"
    fill="white" />
</svg>
